Coordinates
version=1
nRows=10
nColumns=34
inDegrees=yes

Units are S.I. units (second, meters, Newtons, ...)
If the header above contains a line with 'inDegrees', this indicates whether rotational values are in degrees (yes) or radians (no).

endheader
time	pelvis_tilt	pelvis_list	pelvis_rotation	pelvis_tx	pelvis_ty	pelvis_tz	hip_flexion_r	hip_adduction_r	hip_rotation_r	knee_angle_r	ankle_angle_r	subtalar_angle_r	mtp_angle_r	hip_flexion_l	hip_adduction_l	hip_rotation_l	knee_angle_l	ankle_angle_l	subtalar_angle_l	mtp_angle_l	lumbar_extension	lumbar_bending	lumbar_rotation	arm_flex_r	arm_add_r	arm_rot_r	elbow_flex_r	pro_sup_r	arm_flex_l	arm_add_l	arm_rot_l	elbow_flex_l	pro_sup_l
      4.14000000	      1.63863586	     -1.35061302	      3.19094769	      0.37810460	      0.92229006	     -0.20715310	     -8.04457615	      7.64904457	     -1.41870433	     -6.23404674	      9.76355596	     -1.40050390	      2.20872912	     23.67142959	      0.12816577	      0.56884160	    -36.16935152	     -0.20197081	    -11.56796464	     21.37176740	     -7.15175527	      3.25162780	      3.20932861	     -2.88747546	    -21.26504901	      7.21289932	     37.02067644	     90.00000000	     -6.89294425	    -14.43464429	     14.01806017	     22.01575372	     90.00000000
      4.15000000	      1.87697644	     -1.34639420	      2.79001080	      0.39014212	      0.92102383	     -0.20661675	     -9.39773091	      7.63380142	     -1.33279573	     -5.78049903	     10.34972104	     -0.73116350	      2.10665504	     23.54913325	      0.04361980	      0.06633252	    -32.40781730	     -0.55210254	    -12.06018723	     20.39499073	     -7.52422484	      3.20910499	      3.69436296	     -2.40027087	    -21.61236008	      7.36683232	     37.77002113	     90.00000000	     -6.93415645	    -14.30773891	     13.74012753	     21.75913143	     90.00000000
      4.16000000	      1.87732053	     -1.41916912	      2.41883172	      0.40226229	      0.91921914	     -0.20609001	    -10.47601812	      7.68090112	     -1.09297936	     -5.36334205	     10.78870460	     -0.19413640	      2.10912626	     23.67844812	     -0.13145359	     -0.50588742	    -28.68827400	     -0.71198603	    -12.25037067	     19.80959987	     -7.59640891	      3.24421467	      4.07047412	     -1.91079214	    -21.89825534	      7.44232103	     38.36780283	     90.00000000	     -7.07530484	    -14.21776540	     13.57008137	     21.60244090	     90.00000000
      4.17000000	      2.24430077	     -1.39445367	      2.15233100	      0.41442025	      0.91784262	     -0.20589293	    -11.83568329	      7.63007080	     -1.20749977	     -5.19112103	     11.68902690	      0.63630401	      0.16310392	     23.30664409	     -0.12097448	     -0.80489190	    -24.95265771	      0.24575516	    -11.75280499	     12.94263079	     -8.12015767	      3.19963792	      4.33303841	     -1.34807559	    -22.24664939	      7.71576174	     38.98985392	     90.00000000	     -7.02735944	    -14.11804321	     13.71180219	     21.22060494	     90.00000000
      4.18000000	      2.35305638	     -1.46764293	      1.81725302	      0.42671645	      0.91601781	     -0.20557502	    -12.92649300	      7.68034350	     -0.98090349	     -5.01012766	     12.11834828	      0.71316934	      0.37217841	     23.17397843	     -0.25868435	     -1.31761199	    -21.26491916	      0.53992910	    -11.12806062	     12.81349783	     -8.30975528	      3.23431590	      4.67277325	     -0.90990679	    -22.50966771	      7.80948275	     39.54276504	     90.00000000	     -7.03004891	    -13.98627899	     13.54911053	     20.89396648	     90.00000000
      4.19000000	      2.23569726	     -1.66617217	      1.63329498	      0.43909587	      0.91375270	     -0.20543752	    -13.77794535	      7.88310596	     -0.81042436	     -4.81116916	     12.44683495	      0.83566581	      0.52672829	     23.28513645	     -0.41925104	     -1.48136743	    -17.73801333	      0.78176019	    -10.45887791	     12.76439729	     -8.22054219	      3.41842540	      4.83554207	     -0.50196758	    -22.75889925	      7.87168140	     40.03659555	     90.00000000	     -7.08752009	    -13.86780055	     13.46356413	     20.67433053	     90.00000000
      4.20000000	      2.54514688	     -1.70567248	      1.33025050	      0.45184684	      0.91212291	     -0.20532344	    -15.06761725	      7.87144378	     -0.76162760	     -4.72561703	     12.82345451	      1.04617207	      0.78668138	     22.76671157	     -0.49960112	     -2.06525990	    -14.23800915	      0.95263723	     -8.95296164	     12.65018349	     -8.58404519	      3.43987592	      5.14717061	     -0.17324713	    -23.05346982	      8.14456329	     40.57759315	     90.00000000	     -6.91884924	    -13.68120259	     13.38011879	     19.88600170	     90.00000000
      4.21000000	      2.64248528	     -1.91642178	      1.08191903	      0.46439303	      0.91006306	     -0.20524216	    -16.08207968	      8.03382726	     -0.59189021	     -4.69240059	     13.02242990	      1.34338831	      1.13624953	     22.57064479	     -0.70823784	     -2.45760654	    -11.15310274	      1.46809225	     -7.12961181	     12.43677892	     -8.72309947	      3.63372057	      5.33828243	      0.24040410	    -23.30396384	      8.28920561	     40.96841491	     90.00000000	     -6.85992356	    -13.59743722	     13.95920427	     19.40888871	     90.00000000
      4.22000000	      2.39969464	     -2.16471269	      0.93728429	      0.47709133	      0.90745006	     -0.20567942	    -16.65404446	      8.22173558	     -0.49278627	     -4.84166606	     13.32166637	      1.42483458	      1.27579655	     22.73290772	     -0.82602048	     -2.40205175	     -8.37415976	      1.36591591	     -6.10225664	     12.39382405	     -8.44404431	      3.89518695	      5.41816068	      0.49987646	    -23.55383933	      8.33051738	     41.31101141	     90.00000000	     -6.94740894	    -13.38245868	     14.01656353	     19.10491356	     90.00000000
      4.23000000	      2.44442468	     -2.27541990	      0.67661620	      0.49006655	      0.90546384	     -0.20592386	    -17.46452083	      8.20725736	     -0.52882474	     -5.13680602	     13.67426544	      1.92552337	      1.62833875	     22.61805419	     -0.89707684	     -3.33013853	     -6.06383698	      1.15492536	     -3.84268416	     12.38509898	     -8.46998888	      4.00200375	      5.59864517	      0.68854860	    -23.81101631	      8.53136393	     41.81396173	     90.00000000	     -6.63895430	    -13.09774237	     14.45398713	     17.81668757	     90.00000000
